<?xml version="1.0" encoding="utf-8"?>
<!-- created with bpmn-js / http://bpmn.io -->
<!DOCTYPE svg PUBLIC "-//W3C//DTD SVG 1.1//EN" "http://www.w3.org/Graphics/SVG/1.1/DTD/svg11.dtd">
<svg xmlns="http://www.w3.org/2000/svg" xmlns:xlink="http://www.w3.org/1999/xlink" width="1390" height="390" viewBox="115 75 1390 390" version="1.1"><defs><pattern id="djs-grid-pattern-618078" width="10" height="10" patternUnits="userSpaceOnUse"><circle cx="0.5" cy="0.5" r="0.5" style="fill: rgb(204, 204, 204);"/></pattern></defs><g class="djs-group"><g class="djs-element djs-shape" data-element-id="Participant_5" transform="matrix(1, 0, 0, 1, 120, 80)" style="display: block;"><g class="djs-visual"><rect x="0" y="0" width="1380" height="380" rx="0" ry="0" style="stroke-linecap: round; stroke-linejoin: round; stroke: rgb(34, 36, 42); stroke-width: 1.5px; fill: white; fill-opacity: 0.95;"/><path style="fill: none; stroke-linecap: round; stroke-linejoin: round; stroke: rgb(34, 36, 42); stroke-width: 1.5px;" d="M30,0L30,380"/><text style="font-family: Arial, sans-serif; font-size: 12px; font-weight: normal; fill: rgb(34, 36, 42);" lineHeight="1.2" class="djs-label" transform="matrix(-1.83697e-16, -1, 1, -1.83697e-16, 0, 380)"><tspan x="42" y="18.6">Community Marketplace - Student to Student Exchange</tspan></text></g><rect style="fill: none; stroke-opacity: 0; stroke: white; stroke-width: 15px;" class="djs-hit djs-hit-no-move" x="0" y="0" width="1380" height="380"/><rect style="fill: none; stroke-opacity: 0; stroke: white; stroke-width: 15px;" class="djs-hit djs-hit-click-stroke" x="0" y="0" width="1380" height="380"/><rect style="fill: none; stroke-opacity: 0; stroke: white; stroke-width: 15px;" class="djs-hit djs-hit-all" x="0" y="0" width="30" height="380"/><rect x="-5" y="-5" rx="4" width="1390" height="390" style="fill: none;" class="djs-outline"/></g><g class="djs-children"><g class="djs-group"><g class="djs-element djs-shape" data-element-id="Lane_Buyer" transform="matrix(1, 0, 0, 1, 150, 270)" style="display: block;"><g class="djs-visual"><rect x="0" y="0" width="1350" height="190" rx="0" ry="0" style="stroke-linecap: round; stroke-linejoin: round; stroke: rgb(34, 36, 42); stroke-width: 1.5px; fill: white; fill-opacity: 0.25;"/><text style="font-family: Arial, sans-serif; font-size: 12px; font-weight: normal; fill: rgb(34, 36, 42);" lineHeight="1.2" class="djs-label" transform="matrix(-1.83697e-16, -1, 1, -1.83697e-16, 0, 190)"><tspan x="47" y="18.6">Buyer (Interested)</tspan></text></g><rect style="fill: none; stroke-opacity: 0; stroke: white; stroke-width: 15px;" class="djs-hit djs-hit-no-move" x="0" y="0" width="1350" height="190"/><rect style="fill: none; stroke-opacity: 0; stroke: white; stroke-width: 15px;" class="djs-hit djs-hit-click-stroke" x="0" y="0" width="1350" height="190"/><rect style="fill: none; stroke-opacity: 0; stroke: white; stroke-width: 15px;" class="djs-hit djs-hit-all" x="0" y="0" width="30" height="190"/><rect x="-5" y="-5" rx="4" width="1360" height="200" style="fill: none;" class="djs-outline"/></g></g><g class="djs-group"><g class="djs-element djs-shape" data-element-id="Lane_Seller" transform="matrix(1, 0, 0, 1, 150, 80)" style="display: block;"><g class="djs-visual"><rect x="0" y="0" width="1350" height="190" rx="0" ry="0" style="stroke-linecap: round; stroke-linejoin: round; stroke: rgb(34, 36, 42); stroke-width: 1.5px; fill: white; fill-opacity: 0.25;"/><text style="font-family: Arial, sans-serif; font-size: 12px; font-weight: normal; fill: rgb(34, 36, 42);" lineHeight="1.2" class="djs-label" transform="matrix(-1.83697e-16, -1, 1, -1.83697e-16, 0, 190)"><tspan x="43" y="18.6">Seller (Item Owner)</tspan></text></g><rect style="fill: none; stroke-opacity: 0; stroke: white; stroke-width: 15px;" class="djs-hit djs-hit-no-move" x="0" y="0" width="1350" height="190"/><rect style="fill: none; stroke-opacity: 0; stroke: white; stroke-width: 15px;" class="djs-hit djs-hit-click-stroke" x="0" y="0" width="1350" height="190"/><rect style="fill: none; stroke-opacity: 0; stroke: white; stroke-width: 15px;" class="djs-hit djs-hit-all" x="0" y="0" width="30" height="190"/><rect x="-5" y="-5" rx="4" width="1360" height="200" style="fill: none;" class="djs-outline"/></g></g><g class="djs-group"><g class="djs-element djs-shape" data-element-id="StartEvent_HasItem" transform="matrix(1, 0, 0, 1, 200, 152)" style="display: block;"><g class="djs-visual"><circle cx="18" cy="18" r="18" style="stroke-linecap: round; stroke-linejoin: round; stroke: rgb(34, 36, 42); stroke-width: 2px; fill: white; fill-opacity: 0.95;"/></g><rect style="fill: none; stroke-opacity: 0; stroke: white; stroke-width: 15px;" class="djs-hit djs-hit-all" x="0" y="0" width="36" height="36"/><circle cx="18" cy="18" r="23" style="fill: none;" class="djs-outline"/></g></g><g class="djs-group"><g class="djs-element djs-shape" data-element-id="StartEvent_HasItem_label" transform="matrix(1, 0, 0, 1, 181, 195)" style="display: block;"><g class="djs-visual"><text style="font-family: Arial, sans-serif; font-size: 11px; font-weight: normal; fill: rgb(34, 36, 42);" lineHeight="1.2" class="djs-label"><tspan x="0" y="9.899999999999999">Has item to sell</tspan></text></g><rect style="fill: none; stroke-opacity: 0; stroke: white; stroke-width: 15px;" class="djs-hit djs-hit-all" x="0" y="0" width="76" height="14"/><rect x="-5" y="-5" rx="4" width="86" height="24" style="fill: none;" class="djs-outline"/></g></g><g class="djs-group"><g class="djs-element djs-shape" data-element-id="Task_OpenMyListings" transform="matrix(1, 0, 0, 1, 280, 130)" style="display: block;"><g class="djs-visual"><rect x="0" y="0" width="100" height="80" rx="10" ry="10" style="stroke-linecap: round; stroke-linejoin: round; stroke: rgb(34, 36, 42); stroke-width: 2px; fill: white; fill-opacity: 0.95;"/><text style="font-family: Arial, sans-serif; font-size: 12px; font-weight: normal; fill: rgb(34, 36, 42);" lineHeight="1.2" class="djs-label"><tspan x="24" y="36.4">Open My </tspan><tspan x="14" y="50.8">Listings Page</tspan></text><path style="fill: white; stroke-linecap: round; stroke-linejoin: round; stroke: rgb(34, 36, 42); stroke-width: 0.5px;" d="m 15,12 c 0.909,-0.845 1.594,-2.049 1.594,-3.385 0,-2.554 -1.805,-4.62199999 -4.357,-4.62199999 -2.55199998,0 -4.28799998,2.06799999 -4.28799998,4.62199999 0,1.348 0.974,2.562 1.89599998,3.405 -0.52899998,0.187 -5.669,2.097 -5.794,4.7560005 v 6.718 h 17 v -6.718 c 0,-2.2980005 -5.5279996,-4.5950005 -6.0509996,-4.7760005 zm -8,6 l 0,5.5 m 11,0 l 0,-5"/><path style="fill: white; stroke-linecap: round; stroke-linejoin: round; stroke: rgb(34, 36, 42); stroke-width: 0.5px;" d="m 15,12 m 2.162,1.009 c 0,2.4470005 -2.158,4.4310005 -4.821,4.4310005 -2.66499998,0 -4.822,-1.981 -4.822,-4.4310005 "/><path style="fill: rgb(34, 36, 42); stroke-linecap: round; stroke-linejoin: round; stroke: rgb(34, 36, 42); stroke-width: 0.5px;" d="m 15,12 m -6.9,-3.80 c 0,0 2.25099998,-2.358 4.27399998,-1.177 2.024,1.181 4.221,1.537 4.124,0.965 -0.098,-0.57 -0.117,-3.79099999 -4.191,-4.13599999 -3.57499998,0.001 -4.20799998,3.36699999 -4.20699998,4.34799999 z"/></g><rect style="fill: none; stroke-opacity: 0; stroke: white; stroke-width: 15px;" class="djs-hit djs-hit-all" x="0" y="0" width="100" height="80"/><rect x="-5" y="-5" rx="14" width="110" height="90" style="fill: none;" class="djs-outline"/></g></g><g class="djs-group"><g class="djs-element djs-shape" data-element-id="Task_FillListingForm" transform="matrix(1, 0, 0, 1, 420, 130)" style="display: block;"><g class="djs-visual"><rect x="0" y="0" width="100" height="80" rx="10" ry="10" style="stroke-linecap: round; stroke-linejoin: round; stroke: rgb(34, 36, 42); stroke-width: 2px; fill: white; fill-opacity: 0.95;"/><text style="font-family: Arial, sans-serif; font-size: 12px; font-weight: normal; fill: rgb(34, 36, 42);" lineHeight="1.2" class="djs-label"><tspan x="7.666667938232422" y="14.799999999999999">Fill Listing Form</tspan><tspan x="35.333333015441895" y="29.199999999999996">(title, </tspan><tspan x="17.666667938232422" y="43.599999999999994">description, </tspan><tspan x="9.441665649414062" y="57.99999999999999">price, category,</tspan><tspan x="33" y="72.39999999999999">photo)</tspan></text><path style="fill: white; stroke-linecap: round; stroke-linejoin: round; stroke: rgb(34, 36, 42); stroke-width: 0.5px;" d="m 15,12 c 0.909,-0.845 1.594,-2.049 1.594,-3.385 0,-2.554 -1.805,-4.62199999 -4.357,-4.62199999 -2.55199998,0 -4.28799998,2.06799999 -4.28799998,4.62199999 0,1.348 0.974,2.562 1.89599998,3.405 -0.52899998,0.187 -5.669,2.097 -5.794,4.7560005 v 6.718 h 17 v -6.718 c 0,-2.2980005 -5.5279996,-4.5950005 -6.0509996,-4.7760005 zm -8,6 l 0,5.5 m 11,0 l 0,-5"/><path style="fill: white; stroke-linecap: round; stroke-linejoin: round; stroke: rgb(34, 36, 42); stroke-width: 0.5px;" d="m 15,12 m 2.162,1.009 c 0,2.4470005 -2.158,4.4310005 -4.821,4.4310005 -2.66499998,0 -4.822,-1.981 -4.822,-4.4310005 "/><path style="fill: rgb(34, 36, 42); stroke-linecap: round; stroke-linejoin: round; stroke: rgb(34, 36, 42); stroke-width: 0.5px;" d="m 15,12 m -6.9,-3.80 c 0,0 2.25099998,-2.358 4.27399998,-1.177 2.024,1.181 4.221,1.537 4.124,0.965 -0.098,-0.57 -0.117,-3.79099999 -4.191,-4.13599999 -3.57499998,0.001 -4.20799998,3.36699999 -4.20699998,4.34799999 z"/></g><rect style="fill: none; stroke-opacity: 0; stroke: white; stroke-width: 15px;" class="djs-hit djs-hit-all" x="0" y="0" width="100" height="80"/><rect x="-5" y="-5" rx="14" width="110" height="90" style="fill: none;" class="djs-outline"/></g></g><g class="djs-group"><g class="djs-element djs-shape" data-element-id="Task_PublishListing" transform="matrix(1, 0, 0, 1, 560, 130)" style="display: block;"><g class="djs-visual"><rect x="0" y="0" width="100" height="80" rx="10" ry="10" style="stroke-linecap: round; stroke-linejoin: round; stroke: rgb(34, 36, 42); stroke-width: 2px; fill: white; fill-opacity: 0.95;"/><text style="font-family: Arial, sans-serif; font-size: 12px; font-weight: normal; fill: rgb(34, 36, 42);" lineHeight="1.2" class="djs-label"><tspan x="11.333332061767578" y="43.599999999999994">Publish Listing</tspan></text><path style="fill: white; stroke-linecap: round; stroke-linejoin: round; stroke: rgb(34, 36, 42); stroke-width: 0.5px;" d="m 15,12 c 0.909,-0.845 1.594,-2.049 1.594,-3.385 0,-2.554 -1.805,-4.62199999 -4.357,-4.62199999 -2.55199998,0 -4.28799998,2.06799999 -4.28799998,4.62199999 0,1.348 0.974,2.562 1.89599998,3.405 -0.52899998,0.187 -5.669,2.097 -5.794,4.7560005 v 6.718 h 17 v -6.718 c 0,-2.2980005 -5.5279996,-4.5950005 -6.0509996,-4.7760005 zm -8,6 l 0,5.5 m 11,0 l 0,-5"/><path style="fill: white; stroke-linecap: round; stroke-linejoin: round; stroke: rgb(34, 36, 42); stroke-width: 0.5px;" d="m 15,12 m 2.162,1.009 c 0,2.4470005 -2.158,4.4310005 -4.821,4.4310005 -2.66499998,0 -4.822,-1.981 -4.822,-4.4310005 "/><path style="fill: rgb(34, 36, 42); stroke-linecap: round; stroke-linejoin: round; stroke: rgb(34, 36, 42); stroke-width: 0.5px;" d="m 15,12 m -6.9,-3.80 c 0,0 2.25099998,-2.358 4.27399998,-1.177 2.024,1.181 4.221,1.537 4.124,0.965 -0.098,-0.57 -0.117,-3.79099999 -4.191,-4.13599999 -3.57499998,0.001 -4.20799998,3.36699999 -4.20699998,4.34799999 z"/></g><rect style="fill: none; stroke-opacity: 0; stroke: white; stroke-width: 15px;" class="djs-hit djs-hit-all" x="0" y="0" width="100" height="80"/><rect x="-5" y="-5" rx="14" width="110" height="90" style="fill: none;" class="djs-outline"/></g></g><g class="djs-group"><g class="djs-element djs-shape" data-element-id="Task_BrowseMarketplace" transform="matrix(1, 0, 0, 1, 280, 320)" style="display: block;"><g class="djs-visual"><rect x="0" y="0" width="100" height="80" rx="10" ry="10" style="stroke-linecap: round; stroke-linejoin: round; stroke: rgb(34, 36, 42); stroke-width: 2px; fill: white; fill-opacity: 0.95;"/><text style="font-family: Arial, sans-serif; font-size: 12px; font-weight: normal; fill: rgb(34, 36, 42);" lineHeight="1.2" class="djs-label"><tspan x="28.33333396911621" y="36.4">Browse </tspan><tspan x="17.333332061767578" y="50.8">Marketplace</tspan></text><path style="fill: white; stroke-linecap: round; stroke-linejoin: round; stroke: rgb(34, 36, 42); stroke-width: 0.5px;" d="m 15,12 c 0.909,-0.845 1.594,-2.049 1.594,-3.385 0,-2.554 -1.805,-4.62199999 -4.357,-4.62199999 -2.55199998,0 -4.28799998,2.06799999 -4.28799998,4.62199999 0,1.348 0.974,2.562 1.89599998,3.405 -0.52899998,0.187 -5.669,2.097 -5.794,4.7560005 v 6.718 h 17 v -6.718 c 0,-2.2980005 -5.5279996,-4.5950005 -6.0509996,-4.7760005 zm -8,6 l 0,5.5 m 11,0 l 0,-5"/><path style="fill: white; stroke-linecap: round; stroke-linejoin: round; stroke: rgb(34, 36, 42); stroke-width: 0.5px;" d="m 15,12 m 2.162,1.009 c 0,2.4470005 -2.158,4.4310005 -4.821,4.4310005 -2.66499998,0 -4.822,-1.981 -4.822,-4.4310005 "/><path style="fill: rgb(34, 36, 42); stroke-linecap: round; stroke-linejoin: round; stroke: rgb(34, 36, 42); stroke-width: 0.5px;" d="m 15,12 m -6.9,-3.80 c 0,0 2.25099998,-2.358 4.27399998,-1.177 2.024,1.181 4.221,1.537 4.124,0.965 -0.098,-0.57 -0.117,-3.79099999 -4.191,-4.13599999 -3.57499998,0.001 -4.20799998,3.36699999 -4.20699998,4.34799999 z"/></g><rect style="fill: none; stroke-opacity: 0; stroke: white; stroke-width: 15px;" class="djs-hit djs-hit-all" x="0" y="0" width="100" height="80"/><rect x="-5" y="-5" rx="14" width="110" height="90" style="fill: none;" class="djs-outline"/></g></g><g class="djs-group"><g class="djs-element djs-shape" data-element-id="Task_FilterListings" transform="matrix(1, 0, 0, 1, 420, 320)" style="display: block;"><g class="djs-visual"><rect x="0" y="0" width="100" height="80" rx="10" ry="10" style="stroke-linecap: round; stroke-linejoin: round; stroke: rgb(34, 36, 42); stroke-width: 2px; fill: white; fill-opacity: 0.95;"/><text style="font-family: Arial, sans-serif; font-size: 12px; font-weight: normal; fill: rgb(34, 36, 42);" lineHeight="1.2" class="djs-label"><tspan x="11" y="36.4">Filter / Search </tspan><tspan x="29.66666603088379" y="50.8">Listings</tspan></text><path style="fill: white; stroke-linecap: round; stroke-linejoin: round; stroke: rgb(34, 36, 42); stroke-width: 0.5px;" d="m 15,12 c 0.909,-0.845 1.594,-2.049 1.594,-3.385 0,-2.554 -1.805,-4.62199999 -4.357,-4.62199999 -2.55199998,0 -4.28799998,2.06799999 -4.28799998,4.62199999 0,1.348 0.974,2.562 1.89599998,3.405 -0.52899998,0.187 -5.669,2.097 -5.794,4.7560005 v 6.718 h 17 v -6.718 c 0,-2.2980005 -5.5279996,-4.5950005 -6.0509996,-4.7760005 zm -8,6 l 0,5.5 m 11,0 l 0,-5"/><path style="fill: white; stroke-linecap: round; stroke-linejoin: round; stroke: rgb(34, 36, 42); stroke-width: 0.5px;" d="m 15,12 m 2.162,1.009 c 0,2.4470005 -2.158,4.4310005 -4.821,4.4310005 -2.66499998,0 -4.822,-1.981 -4.822,-4.4310005 "/><path style="fill: rgb(34, 36, 42); stroke-linecap: round; stroke-linejoin: round; stroke: rgb(34, 36, 42); stroke-width: 0.5px;" d="m 15,12 m -6.9,-3.80 c 0,0 2.25099998,-2.358 4.27399998,-1.177 2.024,1.181 4.221,1.537 4.124,0.965 -0.098,-0.57 -0.117,-3.79099999 -4.191,-4.13599999 -3.57499998,0.001 -4.20799998,3.36699999 -4.20699998,4.34799999 z"/></g><rect style="fill: none; stroke-opacity: 0; stroke: white; stroke-width: 15px;" class="djs-hit djs-hit-all" x="0" y="0" width="100" height="80"/><rect x="-5" y="-5" rx="14" width="110" height="90" style="fill: none;" class="djs-outline"/></g></g><g class="djs-group"><g class="djs-element djs-shape" data-element-id="Task_OpenListingDetail" transform="matrix(1, 0, 0, 1, 560, 320)" style="display: block;"><g class="djs-visual"><rect x="0" y="0" width="100" height="80" rx="10" ry="10" style="stroke-linecap: round; stroke-linejoin: round; stroke: rgb(34, 36, 42); stroke-width: 2px; fill: white; fill-opacity: 0.95;"/><text style="font-family: Arial, sans-serif; font-size: 12px; font-weight: normal; fill: rgb(34, 36, 42);" lineHeight="1.2" class="djs-label"><tspan x="14.666667938232422" y="36.4">Open Listing </tspan><tspan x="34.666666984558105" y="50.8">Detail</tspan></text><path style="fill: white; stroke-linecap: round; stroke-linejoin: round; stroke: rgb(34, 36, 42); stroke-width: 0.5px;" d="m 15,12 c 0.909,-0.845 1.594,-2.049 1.594,-3.385 0,-2.554 -1.805,-4.62199999 -4.357,-4.62199999 -2.55199998,0 -4.28799998,2.06799999 -4.28799998,4.62199999 0,1.348 0.974,2.562 1.89599998,3.405 -0.52899998,0.187 -5.669,2.097 -5.794,4.7560005 v 6.718 h 17 v -6.718 c 0,-2.2980005 -5.5279996,-4.5950005 -6.0509996,-4.7760005 zm -8,6 l 0,5.5 m 11,0 l 0,-5"/><path style="fill: white; stroke-linecap: round; stroke-linejoin: round; stroke: rgb(34, 36, 42); stroke-width: 0.5px;" d="m 15,12 m 2.162,1.009 c 0,2.4470005 -2.158,4.4310005 -4.821,4.4310005 -2.66499998,0 -4.822,-1.981 -4.822,-4.4310005 "/><path style="fill: rgb(34, 36, 42); stroke-linecap: round; stroke-linejoin: round; stroke: rgb(34, 36, 42); stroke-width: 0.5px;" d="m 15,12 m -6.9,-3.80 c 0,0 2.25099998,-2.358 4.27399998,-1.177 2.024,1.181 4.221,1.537 4.124,0.965 -0.098,-0.57 -0.117,-3.79099999 -4.191,-4.13599999 -3.57499998,0.001 -4.20799998,3.36699999 -4.20699998,4.34799999 z"/></g><rect style="fill: none; stroke-opacity: 0; stroke: white; stroke-width: 15px;" class="djs-hit djs-hit-all" x="0" y="0" width="100" height="80"/><rect x="-5" y="-5" rx="14" width="110" height="90" style="fill: none;" class="djs-outline"/></g></g><g class="djs-group"><g class="djs-element djs-shape" data-element-id="Task_ContactSeller" transform="matrix(1, 0, 0, 1, 700, 320)" style="display: block;"><g class="djs-visual"><rect x="0" y="0" width="100" height="80" rx="10" ry="10" style="stroke-linecap: round; stroke-linejoin: round; stroke: rgb(34, 36, 42); stroke-width: 2px; fill: white; fill-opacity: 0.95;"/><text style="font-family: Arial, sans-serif; font-size: 12px; font-weight: normal; fill: rgb(34, 36, 42);" lineHeight="1.2" class="djs-label"><tspan x="10.583332061767578" y="29.200000000000003">Contact Seller </tspan><tspan x="27.991666793823242" y="43.6">(Email / </tspan><tspan x="20.33333396911621" y="58">WhatsApp)</tspan></text><path style="fill: white; stroke-linecap: round; stroke-linejoin: round; stroke: rgb(34, 36, 42); stroke-width: 0.5px;" d="m 15,12 c 0.909,-0.845 1.594,-2.049 1.594,-3.385 0,-2.554 -1.805,-4.62199999 -4.357,-4.62199999 -2.55199998,0 -4.28799998,2.06799999 -4.28799998,4.62199999 0,1.348 0.974,2.562 1.89599998,3.405 -0.52899998,0.187 -5.669,2.097 -5.794,4.7560005 v 6.718 h 17 v -6.718 c 0,-2.2980005 -5.5279996,-4.5950005 -6.0509996,-4.7760005 zm -8,6 l 0,5.5 m 11,0 l 0,-5"/><path style="fill: white; stroke-linecap: round; stroke-linejoin: round; stroke: rgb(34, 36, 42); stroke-width: 0.5px;" d="m 15,12 m 2.162,1.009 c 0,2.4470005 -2.158,4.4310005 -4.821,4.4310005 -2.66499998,0 -4.822,-1.981 -4.822,-4.4310005 "/><path style="fill: rgb(34, 36, 42); stroke-linecap: round; stroke-linejoin: round; stroke: rgb(34, 36, 42); stroke-width: 0.5px;" d="m 15,12 m -6.9,-3.80 c 0,0 2.25099998,-2.358 4.27399998,-1.177 2.024,1.181 4.221,1.537 4.124,0.965 -0.098,-0.57 -0.117,-3.79099999 -4.191,-4.13599999 -3.57499998,0.001 -4.20799998,3.36699999 -4.20699998,4.34799999 z"/></g><rect style="fill: none; stroke-opacity: 0; stroke: white; stroke-width: 15px;" class="djs-hit djs-hit-all" x="0" y="0" width="100" height="80"/><rect x="-5" y="-5" rx="14" width="110" height="90" style="fill: none;" class="djs-outline"/></g></g><g class="djs-group"><g class="djs-element djs-shape" data-element-id="Task_RespondToBuyer" transform="matrix(1, 0, 0, 1, 840, 130)" style="display: block;"><g class="djs-visual"><rect x="0" y="0" width="100" height="80" rx="10" ry="10" style="stroke-linecap: round; stroke-linejoin: round; stroke: rgb(34, 36, 42); stroke-width: 2px; fill: white; fill-opacity: 0.95;"/><text style="font-family: Arial, sans-serif; font-size: 12px; font-weight: normal; fill: rgb(34, 36, 42);" lineHeight="1.2" class="djs-label"><tspan x="17.666667938232422" y="36.4">Respond to </tspan><tspan x="34.166666984558105" y="50.8">Buyer</tspan></text><path style="fill: white; stroke-linecap: round; stroke-linejoin: round; stroke: rgb(34, 36, 42); stroke-width: 0.5px;" d="m 15,12 c 0.909,-0.845 1.594,-2.049 1.594,-3.385 0,-2.554 -1.805,-4.62199999 -4.357,-4.62199999 -2.55199998,0 -4.28799998,2.06799999 -4.28799998,4.62199999 0,1.348 0.974,2.562 1.89599998,3.405 -0.52899998,0.187 -5.669,2.097 -5.794,4.7560005 v 6.718 h 17 v -6.718 c 0,-2.2980005 -5.5279996,-4.5950005 -6.0509996,-4.7760005 zm -8,6 l 0,5.5 m 11,0 l 0,-5"/><path style="fill: white; stroke-linecap: round; stroke-linejoin: round; stroke: rgb(34, 36, 42); stroke-width: 0.5px;" d="m 15,12 m 2.162,1.009 c 0,2.4470005 -2.158,4.4310005 -4.821,4.4310005 -2.66499998,0 -4.822,-1.981 -4.822,-4.4310005 "/><path style="fill: rgb(34, 36, 42); stroke-linecap: round; stroke-linejoin: round; stroke: rgb(34, 36, 42); stroke-width: 0.5px;" d="m 15,12 m -6.9,-3.80 c 0,0 2.25099998,-2.358 4.27399998,-1.177 2.024,1.181 4.221,1.537 4.124,0.965 -0.098,-0.57 -0.117,-3.79099999 -4.191,-4.13599999 -3.57499998,0.001 -4.20799998,3.36699999 -4.20699998,4.34799999 z"/></g><rect style="fill: none; stroke-opacity: 0; stroke: white; stroke-width: 15px;" class="djs-hit djs-hit-all" x="0" y="0" width="100" height="80"/><rect x="-5" y="-5" rx="14" width="110" height="90" style="fill: none;" class="djs-outline"/></g></g><g class="djs-group"><g class="djs-element djs-shape" data-element-id="Task_NegotiateTerms" transform="matrix(1, 0, 0, 1, 980, 130)" style="display: block;"><g class="djs-visual"><rect x="0" y="0" width="100" height="80" rx="10" ry="10" style="stroke-linecap: round; stroke-linejoin: round; stroke: rgb(34, 36, 42); stroke-width: 2px; fill: white; fill-opacity: 0.95;"/><text style="font-family: Arial, sans-serif; font-size: 12px; font-weight: normal; fill: rgb(34, 36, 42);" lineHeight="1.2" class="djs-label"><tspan x="22.66666603088379" y="29.200000000000003">Negotiate </tspan><tspan x="25.125" y="43.6">Terms of </tspan><tspan x="23.33333396911621" y="58">Exchange</tspan></text><path style="fill: white; stroke-linecap: round; stroke-linejoin: round; stroke: rgb(34, 36, 42); stroke-width: 0.5px;" d="m 15,12 c 0.909,-0.845 1.594,-2.049 1.594,-3.385 0,-2.554 -1.805,-4.62199999 -4.357,-4.62199999 -2.55199998,0 -4.28799998,2.06799999 -4.28799998,4.62199999 0,1.348 0.974,2.562 1.89599998,3.405 -0.52899998,0.187 -5.669,2.097 -5.794,4.7560005 v 6.718 h 17 v -6.718 c 0,-2.2980005 -5.5279996,-4.5950005 -6.0509996,-4.7760005 zm -8,6 l 0,5.5 m 11,0 l 0,-5"/><path style="fill: white; stroke-linecap: round; stroke-linejoin: round; stroke: rgb(34, 36, 42); stroke-width: 0.5px;" d="m 15,12 m 2.162,1.009 c 0,2.4470005 -2.158,4.4310005 -4.821,4.4310005 -2.66499998,0 -4.822,-1.981 -4.822,-4.4310005 "/><path style="fill: rgb(34, 36, 42); stroke-linecap: round; stroke-linejoin: round; stroke: rgb(34, 36, 42); stroke-width: 0.5px;" d="m 15,12 m -6.9,-3.80 c 0,0 2.25099998,-2.358 4.27399998,-1.177 2.024,1.181 4.221,1.537 4.124,0.965 -0.098,-0.57 -0.117,-3.79099999 -4.191,-4.13599999 -3.57499998,0.001 -4.20799998,3.36699999 -4.20699998,4.34799999 z"/></g><rect style="fill: none; stroke-opacity: 0; stroke: white; stroke-width: 15px;" class="djs-hit djs-hit-all" x="0" y="0" width="100" height="80"/><rect x="-5" y="-5" rx="14" width="110" height="90" style="fill: none;" class="djs-outline"/></g></g><g class="djs-group"><g class="djs-element djs-shape" data-element-id="Task_CompleteTransaction" transform="matrix(1, 0, 0, 1, 1120, 320)" style="display: block;"><g class="djs-visual"><rect x="0" y="0" width="100" height="80" rx="10" ry="10" style="stroke-linecap: round; stroke-linejoin: round; stroke: rgb(34, 36, 42); stroke-width: 2px; fill: white; fill-opacity: 0.95;"/><text style="font-family: Arial, sans-serif; font-size: 12px; font-weight: normal; fill: rgb(34, 36, 42);" lineHeight="1.2" class="djs-label"><tspan x="22.66666603088379" y="7.599999999999996">Complete </tspan><tspan x="26.33333396911621" y="21.999999999999993">External </tspan><tspan x="17.224998474121094" y="36.39999999999999">Transaction </tspan><tspan x="28.991666793823242" y="50.79999999999999">(Cash / </tspan><tspan x="26.33333396911621" y="65.19999999999999">External </tspan><tspan x="24.33333396911621" y="79.6">Gateway)</tspan></text><path style="fill: white; stroke-linecap: round; stroke-linejoin: round; stroke: rgb(34, 36, 42); stroke-width: 0.5px;" d="m 15,12 c 0.909,-0.845 1.594,-2.049 1.594,-3.385 0,-2.554 -1.805,-4.62199999 -4.357,-4.62199999 -2.55199998,0 -4.28799998,2.06799999 -4.28799998,4.62199999 0,1.348 0.974,2.562 1.89599998,3.405 -0.52899998,0.187 -5.669,2.097 -5.794,4.7560005 v 6.718 h 17 v -6.718 c 0,-2.2980005 -5.5279996,-4.5950005 -6.0509996,-4.7760005 zm -8,6 l 0,5.5 m 11,0 l 0,-5"/><path style="fill: white; stroke-linecap: round; stroke-linejoin: round; stroke: rgb(34, 36, 42); stroke-width: 0.5px;" d="m 15,12 m 2.162,1.009 c 0,2.4470005 -2.158,4.4310005 -4.821,4.4310005 -2.66499998,0 -4.822,-1.981 -4.822,-4.4310005 "/><path style="fill: rgb(34, 36, 42); stroke-linecap: round; stroke-linejoin: round; stroke: rgb(34, 36, 42); stroke-width: 0.5px;" d="m 15,12 m -6.9,-3.80 c 0,0 2.25099998,-2.358 4.27399998,-1.177 2.024,1.181 4.221,1.537 4.124,0.965 -0.098,-0.57 -0.117,-3.79099999 -4.191,-4.13599999 -3.57499998,0.001 -4.20799998,3.36699999 -4.20699998,4.34799999 z"/></g><rect style="fill: none; stroke-opacity: 0; stroke: white; stroke-width: 15px;" class="djs-hit djs-hit-all" x="0" y="0" width="100" height="80"/><rect x="-5" y="-5" rx="14" width="110" height="90" style="fill: none;" class="djs-outline"/></g></g><g class="djs-group"><g class="djs-element djs-shape" data-element-id="EndEvent_Transaction" transform="matrix(1, 0, 0, 1, 1290, 342)" style="display: block;"><g class="djs-visual"><circle cx="18" cy="18" r="18" style="stroke-linecap: round; stroke-linejoin: round; stroke: rgb(34, 36, 42); stroke-width: 4px; fill: white; fill-opacity: 0.95;"/></g><rect style="fill: none; stroke-opacity: 0; stroke: white; stroke-width: 15px;" class="djs-hit djs-hit-all" x="0" y="0" width="36" height="36"/><circle cx="18" cy="18" r="24" style="fill: none;" class="djs-outline"/></g></g><g class="djs-group"><g class="djs-element djs-shape" data-element-id="EndEvent_Transaction_label" transform="matrix(1, 0, 0, 1, 1278, 385)" style="display: block;"><g class="djs-visual"><text style="font-family: Arial, sans-serif; font-size: 11px; font-weight: normal; fill: rgb(34, 36, 42);" lineHeight="1.2" class="djs-label"><tspan x="0" y="9.899999999999999">Transaction </tspan><tspan x="4.683332443237305" y="23.099999999999998">completed</tspan></text></g><rect style="fill: none; stroke-opacity: 0; stroke: white; stroke-width: 15px;" class="djs-hit djs-hit-all" x="0" y="0" width="61" height="27"/><rect x="-5" y="-5" rx="4" width="71" height="37" style="fill: none;" class="djs-outline"/></g></g><g class="djs-group"><g class="djs-element djs-connection" data-element-id="Flow_M1" style="display: block;"><g class="djs-visual"><defs><marker id="marker-04qel9fxqj8id9jwgt6qv22ad" viewBox="0 0 20 20" refX="11" refY="10" markerWidth="10" markerHeight="10" orient="auto"><path d="M 1 5 L 11 10 L 1 15 Z" style="stroke-linecap: round; stroke-linejoin: round; stroke: rgb(34, 36, 42); stroke-width: 1px; fill: rgb(34, 36, 42);"/></marker></defs><path style="fill: none; stroke-linecap: round; stroke-linejoin: round; stroke: rgb(34, 36, 42); stroke-width: 2px; marker-end: url('#marker-04qel9fxqj8id9jwgt6qv22ad');" data-corner-radius="5" d="M236,170L280,170"/></g><path d="M236,170L280,170" style="fill: none; stroke-opacity: 0; stroke: white; stroke-width: 15px;" class="djs-hit djs-hit-stroke"/><rect x="231" y="165" rx="4" width="54" height="10" style="fill: none;" class="djs-outline"/></g></g><g class="djs-group"><g class="djs-element djs-connection" data-element-id="Flow_M2" style="display: block;"><g class="djs-visual"><defs><marker id="marker-d6qh4fc4i5ijjziof54c4x0jf" viewBox="0 0 20 20" refX="11" refY="10" markerWidth="10" markerHeight="10" orient="auto"><path d="M 1 5 L 11 10 L 1 15 Z" style="stroke-linecap: round; stroke-linejoin: round; stroke: rgb(34, 36, 42); stroke-width: 1px; fill: rgb(34, 36, 42);"/></marker></defs><path style="fill: none; stroke-linecap: round; stroke-linejoin: round; stroke: rgb(34, 36, 42); stroke-width: 2px; marker-end: url('#marker-d6qh4fc4i5ijjziof54c4x0jf');" data-corner-radius="5" d="M380,170L420,170"/></g><path d="M380,170L420,170" style="fill: none; stroke-opacity: 0; stroke: white; stroke-width: 15px;" class="djs-hit djs-hit-stroke"/><rect x="375" y="165" rx="4" width="50" height="10" style="fill: none;" class="djs-outline"/></g></g><g class="djs-group"><g class="djs-element djs-connection" data-element-id="Flow_M3" style="display: block;"><g class="djs-visual"><defs><marker id="marker-6v371iifcxb2dnp6amc3pm0d5" viewBox="0 0 20 20" refX="11" refY="10" markerWidth="10" markerHeight="10" orient="auto"><path d="M 1 5 L 11 10 L 1 15 Z" style="stroke-linecap: round; stroke-linejoin: round; stroke: rgb(34, 36, 42); stroke-width: 1px; fill: rgb(34, 36, 42);"/></marker></defs><path style="fill: none; stroke-linecap: round; stroke-linejoin: round; stroke: rgb(34, 36, 42); stroke-width: 2px; marker-end: url('#marker-6v371iifcxb2dnp6amc3pm0d5');" data-corner-radius="5" d="M520,170L560,170"/></g><path d="M520,170L560,170" style="fill: none; stroke-opacity: 0; stroke: white; stroke-width: 15px;" class="djs-hit djs-hit-stroke"/><rect x="515" y="165" rx="4" width="50" height="10" style="fill: none;" class="djs-outline"/></g></g><g class="djs-group"><g class="djs-element djs-connection" data-element-id="Flow_M4" style="display: block;"><g class="djs-visual"><defs><marker id="marker-3ugsvwh5f08ja3lku8lwdsya2" viewBox="0 0 20 20" refX="11" refY="10" markerWidth="10" markerHeight="10" orient="auto"><path d="M 1 5 L 11 10 L 1 15 Z" style="stroke-linecap: round; stroke-linejoin: round; stroke: rgb(34, 36, 42); stroke-width: 1px; fill: rgb(34, 36, 42);"/></marker></defs><path style="fill: none; stroke-linecap: round; stroke-linejoin: round; stroke: rgb(34, 36, 42); stroke-width: 2px; marker-end: url('#marker-3ugsvwh5f08ja3lku8lwdsya2');" data-corner-radius="5" d="M610,210L610,285C610,287.5,607.5,290,605,290L335,290C332.5,290,330,292.5,330,295L330,320"/></g><path d="M610,210L610,290L330,290L330,320" style="fill: none; stroke-opacity: 0; stroke: white; stroke-width: 15px;" class="djs-hit djs-hit-stroke"/><rect x="325" y="205" rx="4" width="290" height="120" style="fill: none;" class="djs-outline"/></g></g><g class="djs-group"><g class="djs-element djs-connection" data-element-id="Flow_M5" style="display: block;"><g class="djs-visual"><defs><marker id="marker-b0x5dbphsylcolhjvumjl6r2r" viewBox="0 0 20 20" refX="11" refY="10" markerWidth="10" markerHeight="10" orient="auto"><path d="M 1 5 L 11 10 L 1 15 Z" style="stroke-linecap: round; stroke-linejoin: round; stroke: rgb(34, 36, 42); stroke-width: 1px; fill: rgb(34, 36, 42);"/></marker></defs><path style="fill: none; stroke-linecap: round; stroke-linejoin: round; stroke: rgb(34, 36, 42); stroke-width: 2px; marker-end: url('#marker-b0x5dbphsylcolhjvumjl6r2r');" data-corner-radius="5" d="M380,360L420,360"/></g><path d="M380,360L420,360" style="fill: none; stroke-opacity: 0; stroke: white; stroke-width: 15px;" class="djs-hit djs-hit-stroke"/><rect x="375" y="355" rx="4" width="50" height="10" style="fill: none;" class="djs-outline"/></g></g><g class="djs-group"><g class="djs-element djs-connection" data-element-id="Flow_M6" style="display: block;"><g class="djs-visual"><defs><marker id="marker-cv4uot0vghuaer558dvwcfm6v" viewBox="0 0 20 20" refX="11" refY="10" markerWidth="10" markerHeight="10" orient="auto"><path d="M 1 5 L 11 10 L 1 15 Z" style="stroke-linecap: round; stroke-linejoin: round; stroke: rgb(34, 36, 42); stroke-width: 1px; fill: rgb(34, 36, 42);"/></marker></defs><path style="fill: none; stroke-linecap: round; stroke-linejoin: round; stroke: rgb(34, 36, 42); stroke-width: 2px; marker-end: url('#marker-cv4uot0vghuaer558dvwcfm6v');" data-corner-radius="5" d="M520,360L560,360"/></g><path d="M520,360L560,360" style="fill: none; stroke-opacity: 0; stroke: white; stroke-width: 15px;" class="djs-hit djs-hit-stroke"/><rect x="515" y="355" rx="4" width="50" height="10" style="fill: none;" class="djs-outline"/></g></g><g class="djs-group"><g class="djs-element djs-connection" data-element-id="Flow_M7" style="display: block;"><g class="djs-visual"><defs><marker id="marker-81vafoxokbhjmlpx6gp7xhdjz" viewBox="0 0 20 20" refX="11" refY="10" markerWidth="10" markerHeight="10" orient="auto"><path d="M 1 5 L 11 10 L 1 15 Z" style="stroke-linecap: round; stroke-linejoin: round; stroke: rgb(34, 36, 42); stroke-width: 1px; fill: rgb(34, 36, 42);"/></marker></defs><path style="fill: none; stroke-linecap: round; stroke-linejoin: round; stroke: rgb(34, 36, 42); stroke-width: 2px; marker-end: url('#marker-81vafoxokbhjmlpx6gp7xhdjz');" data-corner-radius="5" d="M660,360L700,360"/></g><path d="M660,360L700,360" style="fill: none; stroke-opacity: 0; stroke: white; stroke-width: 15px;" class="djs-hit djs-hit-stroke"/><rect x="655" y="355" rx="4" width="50" height="10" style="fill: none;" class="djs-outline"/></g></g><g class="djs-group"><g class="djs-element djs-connection" data-element-id="Flow_M9" style="display: block;"><g class="djs-visual"><defs><marker id="marker-c1gdl71e6fwombvtll2qrq6lq" viewBox="0 0 20 20" refX="11" refY="10" markerWidth="10" markerHeight="10" orient="auto"><path d="M 1 5 L 11 10 L 1 15 Z" style="stroke-linecap: round; stroke-linejoin: round; stroke: rgb(34, 36, 42); stroke-width: 1px; fill: rgb(34, 36, 42);"/></marker></defs><path style="fill: none; stroke-linecap: round; stroke-linejoin: round; stroke: rgb(34, 36, 42); stroke-width: 2px; marker-end: url('#marker-c1gdl71e6fwombvtll2qrq6lq');" data-corner-radius="5" d="M940,170L980,170"/></g><path d="M940,170L980,170" style="fill: none; stroke-opacity: 0; stroke: white; stroke-width: 15px;" class="djs-hit djs-hit-stroke"/><rect x="935" y="165" rx="4" width="50" height="10" style="fill: none;" class="djs-outline"/></g></g><g class="djs-group"><g class="djs-element djs-connection" data-element-id="Flow_M10" style="display: block;"><g class="djs-visual"><defs><marker id="marker-9vgrfwg0br9njxvgnh5pw2zbv" viewBox="0 0 20 20" refX="11" refY="10" markerWidth="10" markerHeight="10" orient="auto"><path d="M 1 5 L 11 10 L 1 15 Z" style="stroke-linecap: round; stroke-linejoin: round; stroke: rgb(34, 36, 42); stroke-width: 1px; fill: rgb(34, 36, 42);"/></marker></defs><path style="fill: none; stroke-linecap: round; stroke-linejoin: round; stroke: rgb(34, 36, 42); stroke-width: 2px; marker-end: url('#marker-9vgrfwg0br9njxvgnh5pw2zbv');" data-corner-radius="5" d="M1080,170L1165,170C1167.5,170,1170,172.5,1170,175L1170,320"/></g><path d="M1080,170L1170,170L1170,320" style="fill: none; stroke-opacity: 0; stroke: white; stroke-width: 15px;" class="djs-hit djs-hit-stroke"/><rect x="1075" y="165" rx="4" width="100" height="160" style="fill: none;" class="djs-outline"/></g></g><g class="djs-group"><g class="djs-element djs-connection" data-element-id="Flow_M11" style="display: block;"><g class="djs-visual"><defs><marker id="marker-7wu85ycd35yxu8uju8laqwtqe" viewBox="0 0 20 20" refX="11" refY="10" markerWidth="10" markerHeight="10" orient="auto"><path d="M 1 5 L 11 10 L 1 15 Z" style="stroke-linecap: round; stroke-linejoin: round; stroke: rgb(34, 36, 42); stroke-width: 1px; fill: rgb(34, 36, 42);"/></marker></defs><path style="fill: none; stroke-linecap: round; stroke-linejoin: round; stroke: rgb(34, 36, 42); stroke-width: 2px; marker-end: url('#marker-7wu85ycd35yxu8uju8laqwtqe');" data-corner-radius="5" d="M1220,360L1290,360"/></g><path d="M1220,360L1290,360" style="fill: none; stroke-opacity: 0; stroke: white; stroke-width: 15px;" class="djs-hit djs-hit-stroke"/><rect x="1215" y="355" rx="4" width="80" height="10" style="fill: none;" class="djs-outline"/></g></g></g></g></svg>